<svg width="74" height="74" viewBox="0 0 74 74" fill="none" xmlns="http://www.w3.org/2000/svg">
<path fill-rule="evenodd" clip-rule="evenodd" d="M35.97 16.35C53.1375 17.985 62.9475 29.43 62.13 63.765H24.525C24.525 49.05 40.875 53.1375 37.605 29.43" fill="black"/>
<path d="M35.97 16.35C53.1375 17.985 62.9475 29.43 62.13 63.765H24.525C24.525 49.05 40.875 53.1375 37.605 29.43" stroke="black" stroke-width="1.22625" stroke-linecap="round" stroke-linejoin="round"/>
<path fill-rule="evenodd" clip-rule="evenodd" d="M39.24 29.4299C39.8613 34.1878 30.1658 41.4799 26.16 44.1449C21.255 47.4149 21.5493 51.2408 17.985 50.6849C16.2813 49.148 20.2904 45.7145 17.985 45.7799C16.35 45.7799 18.2957 47.791 16.35 49.0499C14.715 49.0499 9.8051 50.6849 9.81 42.5099C9.81 39.2399 19.62 22.8899 19.62 22.8899C19.62 22.8899 22.7102 19.7834 22.89 17.1674C21.6965 15.5423 22.0725 13.8974 22.0725 12.2624C23.7075 10.6274 26.9775 16.3499 26.9775 16.3499H30.2475C30.2475 16.3499 31.5228 13.093 34.335 11.4449C35.97 11.4449 35.97 16.3499 35.97 16.3499" fill="black"/>
<path d="M39.24 29.4299C39.8613 34.1878 30.1658 41.4799 26.16 44.1449C21.255 47.4149 21.5493 51.2408 17.985 50.6849C16.2813 49.148 20.2904 45.7145 17.985 45.7799C16.35 45.7799 18.2957 47.791 16.35 49.0499C14.715 49.0499 9.8051 50.6849 9.81 42.5099C9.81 39.2399 19.62 22.8899 19.62 22.8899C19.62 22.8899 22.7102 19.7834 22.89 17.1674C21.6965 15.5423 22.0725 13.8974 22.0725 12.2624C23.7075 10.6274 26.9775 16.3499 26.9775 16.3499H30.2475C30.2475 16.3499 31.5228 13.093 34.335 11.4449C35.97 11.4449 35.97 16.3499 35.97 16.3499" stroke="black" stroke-width="1.22625" stroke-linecap="round" stroke-linejoin="round"/>
<path fill-rule="evenodd" clip-rule="evenodd" d="M15.5325 41.6925C15.5325 41.9093 15.4464 42.1173 15.2931 42.2706C15.1398 42.4239 14.9318 42.51 14.715 42.51C14.4982 42.51 14.2903 42.4239 14.137 42.2706C13.9837 42.1173 13.8975 41.9093 13.8975 41.6925C13.8975 41.4757 13.9837 41.2678 14.137 41.1145C14.2903 40.9611 14.4982 40.875 14.715 40.875C14.9318 40.875 15.1398 40.9611 15.2931 41.1145C15.4464 41.2678 15.5325 41.4757 15.5325 41.6925ZM24.4155 25.7513C24.2544 26.0317 24.0762 26.2991 23.8912 26.538C23.7062 26.777 23.518 26.9827 23.3374 27.1435C23.1569 27.3042 22.9876 27.4167 22.8393 27.4746C22.6909 27.5324 22.5665 27.5344 22.4731 27.4805C22.3798 27.4266 22.3193 27.3178 22.2952 27.1605C22.2712 27.0031 22.284 26.8002 22.3329 26.5635C22.3818 26.3268 22.4659 26.0609 22.5803 25.7812C22.6948 25.5015 22.8372 25.2135 22.9996 24.9338C23.1607 24.6533 23.3388 24.3859 23.5239 24.147C23.7089 23.9081 23.8971 23.7023 24.0776 23.5416C24.2581 23.3809 24.4274 23.2683 24.5758 23.2105C24.7241 23.1526 24.8485 23.1506 24.9419 23.2045C25.0353 23.2584 25.0957 23.3672 25.1198 23.5246C25.1439 23.682 25.1311 23.8849 25.0821 24.1216C25.0332 24.3583 24.9491 24.6241 24.8347 24.9038C24.7203 25.1835 24.5778 25.4715 24.4155 25.7513Z" fill="#ECECEC" stroke="#ECECEC" stroke-width="1.22625" stroke-linecap="round" stroke-linejoin="round"/>
<path fill-rule="evenodd" clip-rule="evenodd" d="M40.1393 17.004L39.4035 19.3748L40.221 19.62C45.3713 21.255 49.4588 23.6912 53.1375 30.6563C56.8163 37.6214 58.4513 47.5131 57.6338 63.765L57.552 64.5825H61.2308L61.3125 63.765C62.13 47.3169 59.8737 36.2153 55.9988 28.8741C52.1238 21.533 46.5321 18.0177 40.9731 17.1675L40.1393 17.004Z" fill="#ECECEC"/>
</svg>
