<svg width="74" height="74" viewBox="0 0 74 74" fill="none" xmlns="http://www.w3.org/2000/svg">
<path fill-rule="evenodd" clip-rule="evenodd" d="M14.715 63.765H58.86V58.86H14.715V63.765ZM20.4375 52.32L22.89 48.2325H50.685L53.1375 52.32H20.4375ZM19.62 58.86V52.32H53.955V58.86H19.62Z" fill="black" stroke="black" stroke-width="1.22625" stroke-linejoin="round"/>
<path fill-rule="evenodd" clip-rule="evenodd" d="M22.89 48.2325V26.9775H50.685V48.2325H22.89Z" fill="black" stroke="black" stroke-width="1.22625"/>
<path fill-rule="evenodd" clip-rule="evenodd" d="M22.89 26.9775L17.985 22.89H55.59L50.685 26.9775H22.89ZM17.985 22.89V14.715H24.525V17.985H32.7V14.715H40.875V17.985H49.05V14.715H55.59V22.89H17.985Z" fill="black"/>
<path d="M17.985 22.89L22.89 26.9775H50.685L55.59 22.89M17.985 22.89H55.59M17.985 22.89V14.715H24.525V17.985H32.7V14.715H40.875V17.985H49.05V14.715H55.59V22.89" stroke="black" stroke-width="1.22625" stroke-linejoin="round"/>
<path d="M19.62 58.0425H53.955M21.255 51.5025H52.32M22.89 48.2325H50.685M22.89 26.9775H50.685M17.985 22.89H55.59" stroke="#ECECEC" stroke-width="0.8175" stroke-linecap="round"/>
</svg>
