<svg width="74" height="74" viewBox="0 0 74 74" fill="none" xmlns="http://www.w3.org/2000/svg">
<path d="M9.80997 24.1163C12.2932 24.1163 14.3062 22.1032 14.3062 19.62C14.3062 17.1368 12.2932 15.1238 9.80997 15.1238C7.32676 15.1238 5.31372 17.1368 5.31372 19.62C5.31372 22.1032 7.32676 24.1163 9.80997 24.1163Z" fill="black"/>
<path d="M22.89 19.2113C25.3732 19.2113 27.3862 17.1982 27.3862 14.715C27.3862 12.2318 25.3732 10.2188 22.89 10.2188C20.4068 10.2188 18.3937 12.2318 18.3937 14.715C18.3937 17.1982 20.4068 19.2113 22.89 19.2113Z" fill="black"/>
<path d="M36.7875 17.5762C39.2707 17.5762 41.2838 15.5632 41.2838 13.08C41.2838 10.5968 39.2707 8.58374 36.7875 8.58374C34.3043 8.58374 32.2913 10.5968 32.2913 13.08C32.2913 15.5632 34.3043 17.5762 36.7875 17.5762Z" fill="black"/>
<path d="M50.685 19.2113C53.1682 19.2113 55.1812 17.1982 55.1812 14.715C55.1812 12.2318 53.1682 10.2188 50.685 10.2188C48.2018 10.2188 46.1887 12.2318 46.1887 14.715C46.1887 17.1982 48.2018 19.2113 50.685 19.2113Z" fill="black"/>
<path d="M63.765 24.1163C66.2482 24.1163 68.2612 22.1032 68.2612 19.62C68.2612 17.1368 66.2482 15.1238 63.765 15.1238C61.2818 15.1238 59.2687 17.1368 59.2687 19.62C59.2687 22.1032 61.2818 24.1163 63.765 24.1163Z" fill="black"/>
<path fill-rule="evenodd" clip-rule="evenodd" d="M14.715 42.51C28.6125 40.0575 49.05 40.0575 58.86 42.51L62.9475 22.0725L50.685 40.875L50.1945 17.8215L41.6925 40.0575L36.7875 16.35L31.8825 40.0575L23.3805 17.8215L22.89 40.875L10.6275 22.0725L14.715 42.51Z" fill="black" stroke="black" stroke-width="1.22625" stroke-linejoin="round"/>
<path fill-rule="evenodd" clip-rule="evenodd" d="M14.715 42.51C14.715 45.78 17.1675 45.78 18.8025 49.05C20.4375 51.5025 20.4375 50.685 19.62 54.7725C17.1675 56.4075 17.1675 58.86 17.1675 58.86C14.715 61.3125 17.985 62.9475 17.985 62.9475C28.6125 64.5825 44.9625 64.5825 55.59 62.9475C55.59 62.9475 58.0425 61.3125 55.59 58.86C55.59 58.86 56.4075 56.4075 53.955 54.7725C53.1375 50.685 53.1375 51.5025 54.7725 49.05C56.4075 45.78 58.86 45.78 58.86 42.51C44.9625 40.0575 28.6125 40.0575 14.715 42.51Z" fill="black" stroke="black" stroke-width="1.22625" stroke-linejoin="round"/>
<path d="M17.985 62.9475C30.1621 67.1838 43.4129 67.1838 55.59 62.9475" stroke="black" stroke-width="1.22625" stroke-linejoin="round"/>
<path d="M17.985 47.415C30.1621 43.1787 43.4129 43.1787 55.59 47.415M20.4375 51.5025H53.1375M18.8025 56.4075C30.4808 60.2737 43.0942 60.2737 54.7725 56.4075M17.1675 61.3125C29.8387 65.9372 43.7363 65.9372 56.4075 61.3125" stroke="#ECECEC" stroke-width="1.22625" stroke-linecap="round" stroke-linejoin="round"/>
</svg>
