<svg width="74" height="74" viewBox="0 0 74 74" fill="none" xmlns="http://www.w3.org/2000/svg">
<path fill-rule="evenodd" clip-rule="evenodd" d="M14.715 58.86C20.2576 57.274 31.2448 59.563 36.7875 55.59C42.3301 59.563 53.3173 57.274 58.86 58.86C58.86 58.86 61.5577 59.7429 63.765 62.13C62.6532 63.7159 61.0672 63.7486 58.86 62.9475C53.3173 61.3615 42.3301 63.6996 36.7875 61.3125C31.2448 63.6996 20.2576 61.3615 14.715 62.9475C12.5012 63.7486 10.9169 63.7159 9.81 62.13C12.0238 58.9581 14.715 58.86 14.715 58.86Z" fill="white" stroke="black" stroke-width="1.22625" stroke-linejoin="round"/>
<path fill-rule="evenodd" clip-rule="evenodd" d="M24.525 52.32C28.6125 56.4075 44.9625 56.4075 49.05 52.32C49.8675 49.8675 49.05 49.05 49.05 49.05C49.05 44.9625 44.9625 42.51 44.9625 42.51C53.955 40.0575 54.7725 23.7075 36.7875 17.1675C18.8025 23.7075 19.62 40.0575 28.6125 42.51C28.6125 42.51 24.525 44.9625 24.525 49.05C24.525 49.05 23.7075 49.8675 24.525 52.32Z" fill="white" stroke="black" stroke-width="1.22625" stroke-linejoin="round"/>
<path fill-rule="evenodd" clip-rule="evenodd" d="M40.875 13.0801C40.875 14.1641 40.4444 15.2038 39.6778 15.9704C38.9113 16.7369 37.8716 17.1676 36.7875 17.1676C35.7034 17.1676 34.6638 16.7369 33.8972 15.9704C33.1307 15.2038 32.7 14.1641 32.7 13.0801C32.7 11.996 33.1307 10.9563 33.8972 10.1898C34.6638 9.4232 35.7034 8.99255 36.7875 8.99255C37.8716 8.99255 38.9113 9.4232 39.6778 10.1898C40.4444 10.9563 40.875 11.996 40.875 13.0801Z" fill="white" stroke="black" stroke-width="1.22625" stroke-linejoin="round"/>
<path d="M28.6125 42.51H44.9625M24.525 49.05H49.05M36.7875 25.3425V33.5175M32.7 29.43H40.875" stroke="black" stroke-width="1.22625" stroke-linecap="round"/>
</svg>
