<svg width="74" height="74" viewBox="0 0 74 74" fill="none" xmlns="http://www.w3.org/2000/svg">
<path fill-rule="evenodd" clip-rule="evenodd" d="M14.715 63.765H58.86V58.86H14.715V63.765ZM19.62 58.86V52.32H53.955V58.86H19.62ZM17.985 22.89V14.715H24.525V17.985H32.7V14.715H40.875V17.985H49.05V14.715H55.59V22.89" fill="white"/>
<path d="M17.985 22.89V14.715H24.525V17.985H32.7V14.715H40.875V17.985H49.05V14.715H55.59V22.89M14.715 63.765H58.86V58.86H14.715V63.765ZM19.62 58.86V52.32H53.955V58.86H19.62Z" stroke="black" stroke-width="1.22625" stroke-linejoin="round"/>
<path fill-rule="evenodd" clip-rule="evenodd" d="M55.59 22.89L50.685 27.795H22.89L17.985 22.89" fill="white"/>
<path d="M55.59 22.89L50.685 27.795H22.89L17.985 22.89" stroke="black" stroke-width="1.22625" stroke-linecap="round" stroke-linejoin="round"/>
<path fill-rule="evenodd" clip-rule="evenodd" d="M50.685 27.795V48.2325H22.89V27.795" fill="white"/>
<path d="M50.685 27.795V48.2325H22.89V27.795" stroke="black" stroke-width="1.22625"/>
<path fill-rule="evenodd" clip-rule="evenodd" d="M50.685 48.2325L53.1375 52.32H20.4375L22.89 48.2325" fill="white"/>
<path d="M50.685 48.2325L53.1375 52.32H20.4375L22.89 48.2325" stroke="black" stroke-width="1.22625" stroke-linecap="round" stroke-linejoin="round"/>
<path d="M17.985 22.89H55.59" stroke="black" stroke-width="1.22625" stroke-linecap="round"/>
</svg>
