<svg width="74" height="74" viewBox="0 0 74 74" fill="none" xmlns="http://www.w3.org/2000/svg">
<path d="M36.7875 14.715C33.1741 14.715 30.2475 17.6416 30.2475 21.255C30.2475 22.7101 30.7216 24.0508 31.5228 25.1463C28.3345 26.9775 26.16 30.3946 26.16 34.335C26.16 37.654 27.6969 40.6134 30.1003 42.559C25.1953 44.2921 17.985 51.6333 17.985 64.5825H55.59C55.59 51.6333 48.3796 44.2921 43.4746 42.559C45.8781 40.6134 47.415 37.654 47.415 34.335C47.415 30.3946 45.2404 26.9775 42.0522 25.1463C42.8533 24.0508 43.3275 22.7101 43.3275 21.255C43.3275 17.6416 40.4008 14.715 36.7875 14.715Z" fill="white" stroke="black" stroke-width="1.22625" stroke-linecap="round"/>
</svg>
