<svg width="74" height="74" viewBox="0 0 74 74" fill="none" xmlns="http://www.w3.org/2000/svg">
<path fill-rule="evenodd" clip-rule="evenodd" d="M13.08 19.6201C13.08 20.4873 12.7355 21.319 12.1222 21.9323C11.509 22.5455 10.6772 22.8901 9.80998 22.8901C8.94272 22.8901 8.11098 22.5455 7.49774 21.9323C6.88449 21.319 6.53998 20.4873 6.53998 19.6201C6.53998 18.7528 6.88449 17.9211 7.49774 17.3078C8.11098 16.6946 8.94272 16.3501 9.80998 16.3501C10.6772 16.3501 11.509 16.6946 12.1222 17.3078C12.7355 17.9211 13.08 18.7528 13.08 19.6201ZM40.0575 12.2626C40.0575 13.1298 39.713 13.9615 39.0997 14.5748C38.4865 15.188 37.6547 15.5326 36.7875 15.5326C35.9202 15.5326 35.0885 15.188 34.4752 14.5748C33.862 13.9615 33.5175 13.1298 33.5175 12.2626C33.5175 11.3953 33.862 10.5636 34.4752 9.95031C35.0885 9.33707 35.9202 8.99255 36.7875 8.99255C37.6547 8.99255 38.4865 9.33707 39.0997 9.95031C39.713 10.5636 40.0575 11.3953 40.0575 12.2626ZM67.035 19.6201C67.035 20.4873 66.6905 21.319 66.0772 21.9323C65.464 22.5455 64.6322 22.8901 63.765 22.8901C62.8977 22.8901 62.066 22.5455 61.4527 21.9323C60.8395 21.319 60.495 20.4873 60.495 19.6201C60.495 18.7528 60.8395 17.9211 61.4527 17.3078C62.066 16.6946 62.8977 16.3501 63.765 16.3501C64.6322 16.3501 65.464 16.6946 66.0772 17.3078C66.6905 17.9211 67.035 18.7528 67.035 19.6201ZM26.16 13.8976C26.16 14.7648 25.8155 15.5965 25.2022 16.2098C24.589 16.823 23.7572 17.1676 22.89 17.1676C22.0227 17.1676 21.191 16.823 20.5777 16.2098C19.9645 15.5965 19.62 14.7648 19.62 13.8976C19.62 13.0303 19.9645 12.1986 20.5777 11.5853C21.191 10.9721 22.0227 10.6276 22.89 10.6276C23.7572 10.6276 24.589 10.9721 25.2022 11.5853C25.8155 12.1986 26.16 13.0303 26.16 13.8976ZM53.955 14.7151C53.955 15.5823 53.6105 16.414 52.9972 17.0273C52.384 17.6405 51.5522 17.9851 50.685 17.9851C49.8177 17.9851 48.986 17.6405 48.3727 17.0273C47.7595 16.414 47.415 15.5823 47.415 14.7151C47.415 13.8478 47.7595 13.0161 48.3727 12.4028C48.986 11.7896 49.8177 11.4451 50.685 11.4451C51.5522 11.4451 52.384 11.7896 52.9972 12.4028C53.6105 13.0161 53.955 13.8478 53.955 14.7151Z" fill="white" stroke="black" stroke-width="1.22625" stroke-linecap="round" stroke-linejoin="round"/>
<path fill-rule="evenodd" clip-rule="evenodd" d="M14.715 42.51C28.6125 40.0575 49.05 40.0575 58.86 42.51L62.13 22.89L50.685 40.875V17.985L41.6925 40.0575L36.7875 15.5325L31.8825 40.0575L22.89 17.1675V40.875L11.445 22.89L14.715 42.51Z" fill="white" stroke="black" stroke-width="1.22625" stroke-linejoin="round"/>
<path fill-rule="evenodd" clip-rule="evenodd" d="M14.715 42.51C14.715 45.78 17.1675 45.78 18.8025 49.05C20.4375 51.5025 20.4375 50.685 19.62 54.7725C17.1675 56.4075 17.1675 58.86 17.1675 58.86C14.715 61.3125 17.985 62.9475 17.985 62.9475C28.6125 64.5825 44.9625 64.5825 55.59 62.9475C55.59 62.9475 58.0425 61.3125 55.59 58.86C55.59 58.86 56.4075 56.4075 53.955 54.7725C53.1375 50.685 53.1375 51.5025 54.7725 49.05C56.4075 45.78 58.86 45.78 58.86 42.51C44.9625 40.0575 28.6125 40.0575 14.715 42.51Z" fill="white" stroke="black" stroke-width="1.22625" stroke-linejoin="round"/>
<path d="M18.8025 49.05C24.525 47.415 49.05 47.415 54.7725 49.05M19.62 54.7725C29.43 53.1375 44.145 53.1375 53.955 54.7725" stroke="black" stroke-width="1.22625" stroke-linecap="round" stroke-linejoin="round"/>
</svg>
