<svg width="74" height="74" viewBox="0 0 74 74" fill="none" xmlns="http://www.w3.org/2000/svg">
<path d="M36.7875 19.0151V9.81006M32.7 13.0801H40.875" stroke="black" stroke-width="1.22625" stroke-linecap="round"/>
<path fill-rule="evenodd" clip-rule="evenodd" d="M36.7875 40.875C36.7875 40.875 44.145 28.6125 41.6925 23.7075C41.6925 23.7075 40.0575 19.62 36.7875 19.62C33.5175 19.62 31.8825 23.7075 31.8825 23.7075C29.43 28.6125 36.7875 40.875 36.7875 40.875Z" fill="white" stroke="black" stroke-width="1.22625"/>
<path fill-rule="evenodd" clip-rule="evenodd" d="M18.8025 60.495C27.795 66.2175 44.145 66.2175 53.1375 60.495V49.05C53.1375 49.05 67.8525 41.6925 62.9475 31.8825C56.4075 21.255 40.875 26.16 36.7875 38.4225C31.065 26.16 15.5325 21.255 10.6275 31.8825C5.72248 41.6925 18.8025 48.2325 18.8025 48.2325V60.495Z" fill="white"/>
<path d="M36.7875 38.4225C40.875 26.16 56.4075 21.255 62.9475 31.8825C67.8525 41.6925 53.1375 49.05 53.1375 49.05V60.495C44.145 66.2175 27.795 66.2175 18.8025 60.495V48.2325C18.8025 48.2325 5.72248 41.6925 10.6275 31.8825C15.5325 21.255 31.065 26.16 36.7875 38.4225ZM36.7875 38.4225V44.145" stroke="black" stroke-width="1.22625" stroke-linecap="round" stroke-linejoin="round"/>
<path d="M18.8025 49.05C27.795 44.145 44.145 44.145 53.1375 49.05M18.8025 54.7725C27.795 49.8675 44.145 49.8675 53.1375 54.7725M18.8025 60.495C27.795 55.59 44.145 55.59 53.1375 60.495" stroke="black" stroke-width="1.22625" stroke-linecap="round" stroke-linejoin="round"/>
</svg>
